<svg id="eb9c9v92ztyh1" xmlns="http://www.w3.org/2000/svg" xmlns:xlink="http://www.w3.org/1999/xlink" viewBox="0 0 2520.300000 1500" shape-rendering="geometricPrecision" text-rendering="geometricPrecision"><style><![CDATA[#eb9c9v92ztyh15_to {animation: eb9c9v92ztyh15_to__to 6000ms linear infinite normal forwards}@keyframes eb9c9v92ztyh15_to__to { 0% {transform: translate(-3px,0px)} 16.666667% {transform: translate(-3px,0px)} 66.666667% {transform: translate(11.243982px,-495.002381px)} 100% {transform: translate(11.243982px,-495.002381px)} }#eb9c9v92ztyh28_to {animation: eb9c9v92ztyh28_to__to 6000ms linear infinite normal forwards}@keyframes eb9c9v92ztyh28_to__to { 0% {transform: translate(1358.972192px,778.546334px)} 16.666667% {transform: translate(1358.972192px,778.546334px);animation-timing-function: cubic-bezier(0.420000,0,0.580000,1)} 45% {transform: translate(1398.682922px,619.596557px);animation-timing-function: cubic-bezier(0.420000,0,0.580000,1)} 66.666667% {transform: translate(1441.935000px,376.160641px)} 100% {transform: translate(1441.935000px,376.160641px)} }#eb9c9v92ztyh28_tr {animation: eb9c9v92ztyh28_tr__tr 6000ms linear infinite normal forwards}@keyframes eb9c9v92ztyh28_tr__tr { 0% {transform: rotate(80deg)} 16.666667% {transform: rotate(80deg);animation-timing-function: cubic-bezier(0.420000,0,0.580000,1)} 45% {transform: rotate(0deg);animation-timing-function: cubic-bezier(0.420000,0,0.580000,1)} 66.666667% {transform: rotate(-20deg)} 100% {transform: rotate(-20deg)} }#eb9c9v92ztyh37_to {animation: eb9c9v92ztyh37_to__to 6000ms linear infinite normal forwards}@keyframes eb9c9v92ztyh37_to__to { 0% {transform: translate(1247.316072px,615.575714px)} 16.666667% {transform: translate(1247.316072px,615.575714px);animation-timing-function: cubic-bezier(0.420000,0,0.580000,1)} 45% {transform: translate(1280.961110px,607.841756px);animation-timing-function: cubic-bezier(0.420000,0,0.580000,1)} 66.666667% {transform: translate(1312.289332px,511.182340px)} 100% {transform: translate(1312.289332px,511.182340px)} }#eb9c9v92ztyh37_tr {animation: eb9c9v92ztyh37_tr__tr 6000ms linear infinite normal forwards}@keyframes eb9c9v92ztyh37_tr__tr { 0% {transform: rotate(2deg)} 16.666667% {transform: rotate(2deg);animation-timing-function: cubic-bezier(0.420000,0,0.580000,1)} 23.333333% {transform: rotate(6deg);animation-timing-function: cubic-bezier(0.420000,0,0.580000,1)} 30% {transform: rotate(2deg);animation-timing-function: cubic-bezier(0.420000,0,0.580000,1)} 45% {transform: rotate(-20deg);animation-timing-function: cubic-bezier(0.420000,0,0.580000,1)} 66.666667% {transform: rotate(-100deg)} 100% {transform: rotate(-100deg)} }]]></style><g id="eb9c9v92ztyh2"><path id="eb9c9v92ztyh3" d="M717.840000,1477.820000C724.200000,1476.570000,733.280000,1476.190000,744.840000,1476.190000Q861.680000,1476.250000,978.500000,1476.190000L1072.370000,1476.190000C1074.916431,1476.309888,1077.468412,1476.219582,1080,1475.920000C1086.140000,1476.150000,1092.410000,1476.180000,1098.770000,1476.180000L1421.560000,1476.180000C1427.920000,1476.180000,1434.190000,1476.180000,1440.330000,1475.920000C1442.861588,1476.219582,1445.413569,1476.309888,1447.960000,1476.190000L1541.830000,1476.190000L1774.830000,1476.190000C1796.610000,1476.190000,1802.450000,1476.930000,1802.460000,1479.680000C1802.524951,1480.752351,1802.524951,1481.827649,1802.460000,1482.900000C1802.250000,1484.660000,1795.380000,1485.620000,1781.540000,1485.820000C1778.750000,1485.820000,1775.900000,1485.820000,1773.080000,1485.820000L746.740000,1485.820000C734.270000,1485.820000,723.740000,1485.510000,717.840000,1483.950000Z" fill="rgb(108,104,103)" stroke="none" stroke-width="1"/><path id="eb9c9v92ztyh4" d="M1745.220000,1001.430000L1745.220000,240.920000L1066.650000,240.920000C1052.580000,318.580000,1013.860000,333.830000,948.730000,333.830000L514.630000,333.830000L514.630000,447.370000L1263,447.370000L1263,970.450000L514.630000,970.450000L514.630000,1375.230000L1745.220000,1375.230000L1745.220000,1372.170000L2011.370000,1372.170000L2011.370000,1001.430000Z" fill="rgb(233,234,235)" stroke="none" stroke-width="1"/><polyline id="eb9c9v92ztyh5" points="1745.220000,310.880000 1953.400000,310.880000 1953.400000,1004.490000" fill="none" stroke="rgb(110,105,104)" stroke-width="23" stroke-miterlimit="10"/><rect id="eb9c9v92ztyh6" width="374.799988" height="484.320007" rx="0" ry="0" transform="matrix(1 0 0 1 1311.86999511718750 470.69000244140625)" fill="rgb(246,233,233)" stroke="none" stroke-width="1"/><rect id="eb9c9v92ztyh7" width="367.690002" height="66.930000" rx="0" ry="0" transform="matrix(1 0 0 1 705.04998779296875 890.89001464843750)" fill="rgb(104,104,103)" stroke="none" stroke-width="1"/><rect id="eb9c9v92ztyh8" width="413.350006" height="235.199997" rx="0" ry="0" transform="matrix(1 0 0 1 682.21002197265625 556.35998535156250)" fill="rgb(104,104,103)" stroke="none" stroke-width="1"/><rect id="eb9c9v92ztyh9" width="382.579987" height="71.389999" rx="0" ry="0" transform="matrix(1 0 0 1 697.59997558593750 791.55999755859375)" fill="rgb(104,104,103)" stroke="none" stroke-width="1"/><circle id="eb9c9v92ztyh10" r="13.680000" transform="matrix(1 0 0 1 929.94000244140625 925.02001953125000)" fill="rgb(233,234,235)" stroke="none" stroke-width="1"/><circle id="eb9c9v92ztyh11" r="13.680000" transform="matrix(1 0 0 1 973.48999023437500 925.02001953125000)" fill="rgb(233,234,235)" stroke="none" stroke-width="1"/><circle id="eb9c9v92ztyh12" r="13.680000" transform="matrix(0.92387953251129 -0.38268343236509 0.38268343236509 0.92387953251129 1018.83528135425217 925.02386225871533)" fill="rgb(233,234,235)" stroke="none" stroke-width="1"/><polygon id="eb9c9v92ztyh13" points="1263,510.970000 1745.220000,374 1745.220000,483.360000 1263,619.210000 1263,510.970000" fill="rgb(250,180,39)" stroke="none" stroke-width="1"/><polygon id="eb9c9v92ztyh14" points="1480.050000,760.140000 1459.190000,1373.720000 1368.960000,1372.860000 1386.220000,754.420000 1480.050000,760.140000" fill="rgb(250,180,39)" stroke="none" stroke-width="1"/><g id="eb9c9v92ztyh15_to" transform="translate(-3,0)"><polygon id="eb9c9v92ztyh15" points="1374.373309,1249.658095 1388.663309,737.698095 1485.803309,737.698095 1468.203309,1255.378095 1374.373309,1249.658095" transform="translate(0,0)" fill="rgb(250,180,39)" stroke="none" stroke-width="1"/></g><polygon id="eb9c9v92ztyh16" points="1263,716.650000 1745.220000,864.470000 1745.220000,956.520000 1263,812.780000 1263,716.650000" fill="rgb(250,180,39)" stroke="none" stroke-width="1"/><polygon id="eb9c9v92ztyh17" points="514.630000,993.630000 2011.370000,1159.760000 2011.370000,1257.850000 514.630000,1088.900000 514.630000,993.630000" fill="rgb(250,180,39)" stroke="none" stroke-width="1"/><polygon id="eb9c9v92ztyh18" points="758.060000,447.380000 720.690000,335.360000 610.220000,335.360000 648.160000,447.380000 758.060000,447.380000" fill="rgb(250,180,39)" stroke="none" stroke-width="1"/><polygon id="eb9c9v92ztyh19" points="932.570000,970.460000 825.340000,970.460000 960.110000,1368.340000 1065.690000,1369.460000 932.570000,970.460000" fill="rgb(250,180,39)" stroke="none" stroke-width="1"/><circle id="eb9c9v92ztyh20" r="123.260002" transform="matrix(1 0 0 1 733.48999023437500 1294.83996582031250)" fill="rgb(255,255,255)" stroke="none" stroke-width="1"/><circle id="eb9c9v92ztyh21" r="123.260002" transform="matrix(1 0 0 1 1818.29003906250000 1294.83996582031250)" fill="rgb(255,255,255)" stroke="none" stroke-width="1"/><path id="eb9c9v92ztyh22" d="M1818.290000,1136.920000C1731.200000,1136.920000,1660.290000,1207.780000,1660.290000,1294.920000C1660.290000,1382.060000,1731.150000,1452.920000,1818.290000,1452.920000C1905.430000,1452.920000,1976.290000,1382.060000,1976.290000,1294.920000C1976.290000,1207.780000,1905.390000,1136.920000,1818.290000,1136.920000ZM1818.290000,1184.990000C1820.360000,1184.990000,1822.390000,1185.190000,1824.430000,1185.300000C1824.231307,1185.948086,1824.130198,1186.622140,1824.130000,1187.300000L1827.320000,1249.850000C1827.469311,1252.639043,1829.285291,1255.062982,1831.920000,1255.990000C1836.755319,1257.673605,1841.232513,1260.247991,1845.120000,1263.580000C1847.278600,1265.444968,1850.368914,1265.771943,1852.870000,1264.400000L1908.390000,1234.180000C1908.749321,1233.947547,1909.084341,1233.679531,1909.390000,1233.380000C1911.746929,1236.895288,1913.897233,1240.544794,1915.830000,1244.310000C1914.846565,1244.444615,1913.902640,1244.785382,1913.060000,1245.310000L1861.680000,1279.690000C1859.393908,1281.228558,1858.248340,1283.984220,1858.770000,1286.690000C1859.297135,1289.344241,1859.561744,1292.043921,1859.560000,1294.750000C1859.560979,1297.460340,1859.289616,1300.163920,1858.750000,1302.820000C1858.220737,1305.524234,1859.363383,1308.282345,1861.650000,1309.820000L1914,1345.060000C1914.484763,1345.377501,1915.009287,1345.629676,1915.560000,1345.810000C1913.631075,1349.497077,1911.490846,1353.069690,1909.150000,1356.510000C1908.745085,1356.068931,1908.284561,1355.682360,1907.780000,1355.360000L1878.310000,1339.140000C1877.879240,1338.839592,1877.416392,1338.588045,1876.930000,1338.390000L1852.930000,1325.180000C1850.421097,1323.803173,1847.321479,1324.125884,1845.150000,1325.990000C1841.269752,1329.329360,1836.795021,1331.907673,1831.960000,1333.590000C1829.327417,1334.512031,1827.513661,1336.934324,1827.370000,1339.720000L1824.180000,1401.970000C1824.156772,1402.760541,1824.271835,1403.549062,1824.520000,1404.300000C1822.520000,1404.420000,1820.430000,1404.610000,1818.340000,1404.610000C1816.250000,1404.610000,1814.230000,1404.420000,1812.170000,1404.300000C1812.421457,1403.566893,1812.539983,1402.794775,1812.520000,1402.020000L1809.720000,1339.910000C1809.597694,1337.082724,1807.756639,1334.618725,1805.080000,1333.700000C1799.985184,1331.976660,1795.283990,1329.257243,1791.250000,1325.700000C1789.088076,1323.824539,1785.992789,1323.478408,1783.470000,1324.830000L1727,1355.680000C1724.660454,1352.139132,1722.526917,1348.466377,1720.610000,1344.680000C1721.615305,1344.571948,1722.581211,1344.229428,1723.430000,1343.680000L1774.950000,1309.330000C1777.251738,1307.802872,1778.411016,1305.042685,1777.890000,1302.330000C1776.909432,1297.287226,1776.909432,1292.102774,1777.890000,1287.060000C1778.397208,1284.348772,1777.241030,1281.595968,1774.950000,1280.060000L1723.370000,1245.920000C1722.516945,1245.379287,1721.553128,1245.037508,1720.550000,1244.920000C1722.569891,1240.936832,1724.823834,1237.076745,1727.300000,1233.360000C1727.886265,1234.396427,1728.743573,1235.253735,1729.780000,1235.840000L1783.420000,1264.770000C1785.938140,1266.145477,1789.047887,1265.797729,1791.200000,1263.900000C1795.235528,1260.350147,1799.931908,1257.631548,1805.020000,1255.900000C1807.691636,1254.980246,1809.530926,1252.522574,1809.660000,1249.700000L1812.470000,1187.300000C1812.476368,1186.620893,1812.371653,1185.945314,1812.160000,1185.300000C1814.160000,1185.160000,1816.220000,1184.920000,1818.280000,1184.920000ZM1798.750000,1186.830000L1797.490000,1215.150000C1783.344058,1218.823146,1770.442398,1226.223644,1760.130000,1236.580000L1736.320000,1223.730000C1735.910175,1223.559512,1735.484877,1223.428908,1735.050000,1223.340000C1751.458154,1204.212551,1773.946071,1191.310864,1798.740000,1186.800000ZM1837.860000,1186.830000C1862.329253,1191.279680,1884.562726,1203.905444,1900.920000,1222.640000L1876.070000,1236.140000C1865.840693,1226.076467,1853.174329,1218.840513,1839.310000,1215.140000ZM1921.080000,1256.350000C1930.558271,1281.165753,1930.558271,1308.604247,1921.080000,1333.420000L1897.500000,1317.540000C1901.779958,1302.753480,1901.779958,1287.056520,1897.500000,1272.270000L1920.630000,1256.770000C1920.850000,1256.650000,1920.900000,1256.460000,1921.070000,1256.340000ZM1715.320000,1256.920000C1715.456500,1257.076493,1715.603507,1257.223500,1715.760000,1257.360000L1738.930000,1272.790000C1734.869814,1287.223228,1734.869814,1302.496772,1738.930000,1316.930000L1715.740000,1332.400000C1715.570000,1332.510000,1715.470000,1332.700000,1715.310000,1332.830000C1706.110000,1308.362920,1706.110000,1281.387080,1715.310000,1256.920000ZM1818.320000,1267.380000C1803.148738,1267.380000,1790.850000,1279.678738,1790.850000,1294.850000C1790.850000,1310.021262,1803.148738,1322.320000,1818.320000,1322.320000C1833.491262,1322.320000,1845.790000,1310.021262,1845.790000,1294.850000L1845.790000,1294.850000C1845.778960,1279.669980,1833.470024,1267.369996,1818.290000,1267.370000ZM1818.320000,1281.120000C1825.908390,1281.114479,1832.064471,1287.261608,1832.069993,1294.849998C1832.075515,1302.438387,1825.928387,1308.594469,1818.339998,1308.599993C1810.751608,1308.605516,1804.595525,1302.458390,1804.590000,1294.870000L1804.590000,1294.870000C1804.600928,1287.301736,1810.721800,1281.162993,1818.290000,1281.130000ZM1760.110000,1353.120000C1770.458146,1363.437862,1783.356025,1370.828782,1797.490000,1374.540000L1798.770000,1402.750000L1798.770000,1402.890000C1774.154440,1398.426718,1751.802978,1385.686209,1735.420000,1366.780000ZM1875.990000,1353.660000L1900.730000,1367.290000C1884.397869,1385.930264,1862.233730,1398.489238,1837.850000,1402.920000L1837.850000,1402.820000L1839.300000,1374.530000C1853.119151,1370.860613,1865.750376,1363.669842,1875.960000,1353.660000Z" fill="rgb(104,104,103)" stroke="none" stroke-width="1"/><path id="eb9c9v92ztyh23" d="M733.620000,1136.920000C646.530000,1136.920000,575.620000,1207.780000,575.620000,1294.920000C575.620000,1382.060000,646.480000,1452.920000,733.620000,1452.920000C820.760000,1452.920000,891.620000,1382.060000,891.620000,1294.920000C891.620000,1207.780000,820.710000,1136.920000,733.620000,1136.920000ZM733.620000,1184.990000C735.690000,1184.990000,737.720000,1185.190000,739.760000,1185.300000C739.558063,1185.947606,739.453586,1186.621650,739.450000,1187.300000L742.640000,1249.850000C742.789311,1252.639043,744.605291,1255.062982,747.240000,1255.990000C752.076900,1257.670141,756.554711,1260.244882,760.440000,1263.580000C762.600551,1265.449492,765.696431,1265.776634,768.200000,1264.400000L823.710000,1234.180000C824.053488,1233.946914,824.371860,1233.678811,824.660000,1233.380000C827.016929,1236.895288,829.167233,1240.544794,831.100000,1244.310000C830.119661,1244.444509,829.178979,1244.785336,828.340000,1245.310000L777,1279.690000C774.722422,1281.235517,773.579278,1283.985347,774.090000,1286.690000C774.617135,1289.344241,774.881744,1292.043921,774.880000,1294.750000C774.884338,1297.460007,774.616324,1300.163590,774.080000,1302.820000C773.545163,1305.524789,774.689050,1308.285894,776.980000,1309.820000L829.330000,1345.060000C829.812312,1345.375531,830.333267,1345.627606,830.880000,1345.810000C828.951075,1349.497077,826.810846,1353.069690,824.470000,1356.510000C824.067720,1356.066185,823.606809,1355.679289,823.100000,1355.360000L793.640000,1339.140000C793.205743,1338.839505,792.739574,1338.587975,792.250000,1338.390000L768.250000,1325.180000C765.742300,1323.797224,762.639076,1324.120311,760.470000,1325.990000C756.587604,1329.331620,752.109156,1331.910121,747.270000,1333.590000C744.637417,1334.512031,742.823661,1336.934324,742.680000,1339.720000L739.440000,1402C739.419993,1402.791129,739.538443,1403.579664,739.790000,1404.330000C737.730000,1404.450000,735.690000,1404.640000,733.610000,1404.640000C731.530000,1404.640000,729.490000,1404.450000,727.440000,1404.330000C727.686623,1403.595712,727.805019,1402.824453,727.790000,1402.050000L725,1339.910000C724.883247,1337.080747,723.040108,1334.613960,720.360000,1333.700000C715.265184,1331.976660,710.563990,1329.257243,706.530000,1325.700000C704.368076,1323.824539,701.272789,1323.478408,698.750000,1324.830000L642.280000,1355.680000C639.940031,1352.141266,637.809704,1348.468288,635.900000,1344.680000C636.905305,1344.571948,637.871211,1344.229428,638.720000,1343.680000L690.240000,1309.330000C692.533650,1307.796684,693.687522,1305.039992,693.170000,1302.330000C692.189432,1297.287226,692.189432,1292.102774,693.170000,1287.060000C693.679281,1284.350873,692.527250,1281.598579,690.240000,1280.060000L638.720000,1245.920000C637.866945,1245.379287,636.903128,1245.037508,635.900000,1244.920000C637.916111,1240.934773,640.170184,1237.074464,642.650000,1233.360000C643.236265,1234.396427,644.093573,1235.253735,645.130000,1235.840000L698.770000,1264.770000C699.767406,1265.321911,700.890103,1265.607751,702.030000,1265.600000C703.694416,1265.608232,705.303537,1265.003032,706.550000,1263.900000C710.581798,1260.350208,715.274905,1257.631537,720.360000,1255.900000C723.038551,1254.989751,724.881995,1252.526528,725,1249.700000L727.820000,1187.300000C727.821398,1186.621262,727.716805,1185.946467,727.510000,1185.300000C729.510000,1185.160000,731.510000,1184.920000,733.630000,1184.920000ZM714.070000,1186.830000L712.850000,1215.120000C698.709499,1218.799350,685.812614,1226.199089,675.500000,1236.550000L651.690000,1223.700000C651.280175,1223.529512,650.854877,1223.398908,650.420000,1223.310000C666.818434,1204.201630,689.287307,1191.311332,714.060000,1186.800000ZM753.190000,1186.830000C777.637937,1191.291684,799.848642,1203.916531,816.190000,1222.640000L791.350000,1236.140000C781.116776,1226.076446,768.447204,1218.840628,754.580000,1215.140000ZM836.400000,1256.350000C845.889558,1281.163670,845.889558,1308.606330,836.400000,1333.420000L812.850000,1317.530000C817.129958,1302.743480,817.129958,1287.046520,812.850000,1272.260000L835.970000,1256.760000C836.140000,1256.650000,836.230000,1256.460000,836.390000,1256.340000ZM630.640000,1256.920000C630.777336,1257.079082,630.927872,1257.226273,631.090000,1257.360000L654.250000,1272.790000C650.189814,1287.223228,650.189814,1302.496772,654.250000,1316.930000L631.060000,1332.400000C630.880000,1332.510000,630.790000,1332.700000,630.630000,1332.830000C621.430000,1308.362920,621.430000,1281.387080,630.630000,1256.920000ZM733.640000,1267.380000C718.468738,1267.380000,706.170000,1279.678738,706.170000,1294.850000C706.170000,1310.021262,718.468738,1322.320000,733.640000,1322.320000C748.811262,1322.320000,761.110000,1310.021262,761.110000,1294.850000L761.110000,1294.850000C761.098964,1279.673884,748.796119,1267.375515,733.620000,1267.370000ZM733.640000,1281.120000C741.224424,1281.147608,747.351996,1287.315447,747.329927,1294.899888C747.307859,1302.484330,741.144497,1308.616405,733.560041,1308.599876C725.975586,1308.583347,719.839010,1302.424466,719.850000,1294.840000C719.855288,1291.190713,721.312096,1287.693436,723.899092,1285.119572C726.486088,1282.545708,729.990733,1281.106716,733.640000,1281.120000L733.640000,1281.120000ZM675.430000,1353.120000C685.778146,1363.437862,698.676025,1370.828782,712.810000,1374.540000L714.080000,1402.750000C714.090013,1402.796130,714.090013,1402.843870,714.080000,1402.890000C689.464440,1398.426718,667.112978,1385.686209,650.730000,1366.780000ZM791.300000,1353.660000L816.050000,1367.290000C799.709767,1385.919868,777.542783,1398.467883,753.160000,1402.890000L753.160000,1402.790000L754.610000,1374.500000C768.429103,1370.839520,781.063341,1363.659331,791.280000,1353.660000Z" fill="rgb(104,104,103)" stroke="none" stroke-width="1"/><path id="eb9c9v92ztyh24" d="M1100.100000,1444.570000C1091.840000,1448.500000,1079.100000,1453.260000,1074.330000,1453.900000C1065.990000,1455.010000,1058.920000,1453.240000,1051.850000,1450.830000C1048.460000,1449.670000,1044.160000,1445.220000,1050.030000,1435.550000C1031.690000,1434.110000,1023.610000,1436.740000,1020.200000,1441.920000C1016.790000,1447.100000,1022.010000,1455.920000,1022.450000,1456.670000C1025.450000,1461.670000,1031.130000,1466.550000,1065.940000,1472.940000C1092.830000,1477.940000,1096.800000,1476.330000,1099.160000,1473.940000C1103.250000,1469.670000,1104.730000,1464.180000,1100.100000,1444.570000Z" fill="rgb(87,72,92)" stroke="none" stroke-width="1"/><path id="eb9c9v92ztyh25" d="M1068.340000,1407.210000C1069.250000,1410.940000,1071.340000,1421.560000,1065.340000,1428.710000C1062.030000,1432.710000,1057.900000,1436.460000,1050.020000,1435.840000C1044.140000,1445.510000,1048.440000,1449.960000,1051.840000,1451.120000C1058.910000,1453.530000,1065.980000,1455.300000,1074.320000,1454.190000C1079.070000,1453.550000,1091.830000,1448.790000,1100.080000,1444.860000C1096.810000,1430.970000,1098.370000,1419,1098.170000,1411.300000" fill="rgb(226,175,147)" stroke="none" stroke-width="1"/><path id="eb9c9v92ztyh26" d="M1188.640000,1445.880000C1196.890000,1449.810000,1209.640000,1454.580000,1214.400000,1455.210000C1222.740000,1456.320000,1229.820000,1454.550000,1236.880000,1452.140000C1240.280000,1450.980000,1244.580000,1446.530000,1238.700000,1436.870000C1257.050000,1435.420000,1265.130000,1438.050000,1268.530000,1443.230000C1271.930000,1448.410000,1266.720000,1457.230000,1266.290000,1457.980000C1263.290000,1462.980000,1257.600000,1467.860000,1222.790000,1474.260000C1195.900000,1479.200000,1191.930000,1477.640000,1189.580000,1475.260000C1185.480000,1471,1184,1465.510000,1188.640000,1445.880000Z" fill="rgb(87,72,92)" stroke="none" stroke-width="1"/><path id="eb9c9v92ztyh27" d="M1220.390000,1408.510000C1219.480000,1412.230000,1217.390000,1422.860000,1223.390000,1430C1226.700000,1434,1230.840000,1437.760000,1238.720000,1437.140000C1244.590000,1446.800000,1240.290000,1451.250000,1236.890000,1452.410000C1229.830000,1454.820000,1222.760000,1456.590000,1214.420000,1455.480000C1209.660000,1454.850000,1196.910000,1450.080000,1188.650000,1446.150000C1191.930000,1432.260000,1190.360000,1420.290000,1190.560000,1412.590000" fill="rgb(226,175,147)" stroke="none" stroke-width="1"/></g><g id="eb9c9v92ztyh28_to" transform="translate(1358.972192,778.546334)"><g id="eb9c9v92ztyh28_tr" transform="rotate(80)"><g id="eb9c9v92ztyh28" transform="translate(-1335.606750,-613.389801)"><rect id="eb9c9v92ztyh29" width="27.250000" height="4.170000" rx="0" ry="0" transform="matrix(0.55571531902582 -0.83137265062066 0.83137265062066 0.55571531902582 1389.75775383308905 542.05920009267584)" fill="rgb(233,234,235)" stroke="none" stroke-width="1"/><path id="eb9c9v92ztyh30" d="M1347.220000,669.270000L1291.800000,632.270000L1357.420000,534L1412.840000,571Z" fill="rgb(233,234,235)" stroke="none" stroke-width="1"/><path id="eb9c9v92ztyh31" d="M1392.380000,519.180000L1401.220000,505.960000C1401.518554,505.462606,1402.003835,505.105463,1402.567504,504.968303C1403.131172,504.831144,1403.726292,504.925390,1404.220000,505.230000L1421.550000,516.810000C1422.491888,517.518524,1422.700074,518.847369,1422.020000,519.810000L1413.180000,533.030000Z" fill="rgb(104,104,103)" stroke="none" stroke-width="1"/><path id="eb9c9v92ztyh32" d="M1344.780000,552.920000L1358.270000,532.740000C1361.430000,531.420000,1377.530000,525.640000,1393.470000,536.300000L1396.930000,538.610000C1407.346576,545.571771,1413.626640,557.251341,1413.690000,569.780000L1400.210000,590Z" fill="rgb(104,104,103)" stroke="none" stroke-width="1"/><path id="eb9c9v92ztyh33" d="M1304.100000,617.530000L1294.800000,631.450000L1346.800000,666.180000L1354.290000,654.980000C1353.750000,649.930000,1351.870000,642.250000,1345.560000,638.040000C1341.110000,635.040000,1336.160000,635.480000,1330.930000,635.920000C1325.220000,636.400000,1319.330000,636.920000,1313.740000,633.160000C1308.510000,629.790000,1305.650000,623.490000,1304.100000,617.530000Z" fill="rgb(222,156,33)" stroke="none" stroke-width="1"/><path id="eb9c9v92ztyh34" d="M1363.480000,589.320000C1370.700000,585.120000,1380.280000,576.670000,1391.700000,566.130000C1423.400000,536.900000,1417.930000,507.010000,1416.800000,502.920000C1416.210000,500.830000,1411.070000,500.740000,1410.540000,502.780000C1400.540000,541.150000,1381.380000,544.240000,1381.190000,544.170000C1381,544.100000,1400.280000,514.220000,1390.490000,516.110000C1381.860000,517.770000,1374.910000,528.110000,1345.090000,567.410000" fill="rgb(226,175,147)" stroke="none" stroke-width="1"/><path id="eb9c9v92ztyh35" d="M1252.400000,691.180000C1315.070000,615.180000,1333.160000,571.180000,1339.100000,563.650000C1340.760000,561.570000,1376.700000,574.740000,1369.400000,586.650000C1335.950000,641.480000,1313.240000,679.600000,1287.400000,716.920000C1280.820000,726.920000,1266.570000,728.230000,1257.130000,720.470000C1248.450000,713.330000,1246,700.210000,1252.400000,691.180000Z" fill="rgb(237,106,79)" stroke="none" stroke-width="1"/></g></g></g><g id="eb9c9v92ztyh36"><g id="eb9c9v92ztyh37_to" transform="translate(1247.316072,615.575714)"><g id="eb9c9v92ztyh37_tr" transform="rotate(2)"><path id="eb9c9v92ztyh37" d="M1246.820000,500.820000C1264.220000,506.250000,1265.610000,540.330000,1275.260000,594.150000C1285.190000,649.510000,1277.710000,681.550000,1283.650000,712.860000C1284.650000,717.930000,1273.710000,730,1266.780000,731.380000C1259.440000,732.850000,1241.070000,728.950000,1240.840000,721.380000C1238.290000,711.890000,1237.630000,704.010000,1236.720000,698.730000C1233.120000,677.810000,1232.540000,670.500000,1230.180000,656.280000C1227.900000,642.550000,1227.670000,644.580000,1220.530000,610.340000C1214.130000,579.640000,1212.820000,570.850000,1211.880000,561.900000C1210.560000,549.380000,1209.570000,532.900000,1216.200000,516.050000C1218.490000,510.240000,1221.340000,505.250000,1226.580000,502.210000C1232.884697,499.115442,1240.151446,498.616392,1246.820000,500.820000Z" transform="translate(-1247.316072,-615.575714)" fill="rgb(237,106,79)" stroke="none" stroke-width="1"/></g></g></g><g id="eb9c9v92ztyh38"><path id="eb9c9v92ztyh39" d="M974.440000,871.920000C971.590000,879.770000,969.680000,892.400000,967.680000,907.820000C962.150000,950.570000,985.530000,970,989,972.390000C990.800000,973.620000,994.790000,970.390000,993.880000,968.480000C976.880000,932.670000,989.630000,917.960000,989.820000,917.900000C990.010000,917.840000,994.410000,953.120000,1000.700000,945.390000C1006.250000,938.570000,1004.950000,926.200000,1002.580000,876.910000" fill="rgb(226,175,147)" stroke="none" stroke-width="1"/><path id="eb9c9v92ztyh40" d="M1260.600000,857.110000C1260.600000,962.820000,1229.350000,1105.780000,1234.220000,1150.720000C1247.690000,1274.940000,1229.160000,1369,1223.970000,1409.720000C1222.580000,1420.600000,1201.030000,1414.140000,1187.970000,1414.140000C1180.970000,1414.140000,1183.450000,1355.600000,1176.970000,1199.690000C1171.340000,1063.440000,1154.340000,1002.240000,1148.900000,933.320000C1148.760000,931.570000,1149.180000,929.320000,1144.360000,929.320000C1139.540000,929.320000,1139.960000,931.610000,1139.820000,933.320000C1134.370000,1002.240000,1117.370000,1063.440000,1111.750000,1199.690000C1105.310000,1355.600000,1107.750000,1414.140000,1100.750000,1414.140000C1087.750000,1414.140000,1066.140000,1420.600000,1064.750000,1409.720000C1059.560000,1369.050000,1041.040000,1274.990000,1054.500000,1150.720000C1059.380000,1105.780000,1028.130000,962.820000,1028.130000,857.110000" fill="rgb(82,98,114)" stroke="none" stroke-width="1"/><path id="eb9c9v92ztyh41" d="M1268.880000,546.536988C1268.150000,541.226988,1219.840000,701.920000,1230.400000,754.500000C1243.620000,820.370000,1267.520000,847.110000,1268.880000,866.280000C1270.010000,882.120000,1170.420000,883.440000,1143.620000,883.440000C1116.820000,883.440000,1017.240000,882.120000,1018.360000,866.280000C1019.720000,847.110000,1043.620000,820.370000,1056.850000,754.500000C1067.400000,701.920000,1057.790000,651.010000,1057.060000,656.320000C1046.360000,734.250000,1032.060000,788.540000,1008.060000,885.990000C1004.380000,900.910000,970.120000,882.060000,970.500000,879.150000C972.280000,865.410000,1005.380000,787.290000,1011.970000,594.150000C1013.080000,561.810000,1013.480000,515.910000,1040.410000,500.820000C1053.410000,493.560000,1114.630000,489.900000,1138.030000,489.900000L1149.200000,489.900000C1172.610000,489.900000,1233.860000,493.560000,1246.820000,500.820000Z" transform="matrix(1 0 0 1 2.99312751999992 0.49035061999996)" fill="rgb(237,106,79)" stroke="none" stroke-width="1"/><path id="eb9c9v92ztyh42" d="M1136.360000,594.340000C1111.360000,595.340000,1101.650000,593.600000,1085.360000,590.570000C1082.880000,590.110000,1050.360000,583.420000,1046.020000,569.640000C1042.360000,557.900000,1057.140000,548.290000,1058.820000,535.090000C1062.460000,506.500000,1061.820000,463.610000,1058.820000,430.750000C1051.820000,353.700000,1091.900000,304.640000,1108.080000,291.870000C1111.810000,288.870000,1120.450000,282.100000,1132.380000,282.190000C1141.380000,282.270000,1142.620000,285.660000,1151.810000,285.190000C1159.810000,284.800000,1163.280000,284.110000,1170.810000,282.860000C1181.430000,281.080000,1201.480000,300.860000,1206.390000,305.290000C1236.920000,332.650000,1237.980000,394.790000,1237.980000,394.790000C1243.660000,487.270000,1230.760000,517.350000,1230.680000,543.010000C1230.680000,555.750000,1247.770000,570.870000,1244.110000,580.540000C1239.820000,591.860000,1177.990000,594.310000,1136.410000,594.310000" fill="rgb(164,107,84)" stroke="none" stroke-width="1"/></g></svg>