<svg id="ewxx4pxw867f1" xmlns="http://www.w3.org/2000/svg" xmlns:xlink="http://www.w3.org/1999/xlink" viewBox="0 0 2520.300000 1500" shape-rendering="geometricPrecision" text-rendering="geometricPrecision"><style><![CDATA[#ewxx4pxw867f12 {animation: ewxx4pxw867f12__sz 6000ms linear infinite normal forwards}@keyframes ewxx4pxw867f12__sz { 0% {width: 0px;height: 0px} 16.666667% {width: 0px;height: 0px} 41.666667% {width: 344.679993px;height: 171.149994px} 100% {width: 344.679993px;height: 171.149994px} }#ewxx4pxw867f12_to {animation: ewxx4pxw867f12_to__to 6000ms linear infinite normal forwards}@keyframes ewxx4pxw867f12_to__to { 0% {transform: translate(1067.357999px,686.600001px)} 41.666667% {transform: translate(1067.357999px,686.600001px)} 58.333333% {transform: translate(890.180023px,931.735001px)} 100% {transform: translate(890.180023px,931.735001px)} }#ewxx4pxw867f14_to {animation: ewxx4pxw867f14_to__to 6000ms linear infinite normal forwards}@keyframes ewxx4pxw867f14_to__to { 0% {transform: translate(-616.841997px,-42.784996px)} 16.666667% {transform: translate(-616.841997px,-42.784996px)} 41.666667% {transform: translate(-271.400146px,128.364998px)} 58.333333% {transform: translate(-449.339980px,373.499998px)} 100% {transform: translate(-449.339980px,373.499998px)} }]]></style><g id="ewxx4pxw867f2"><rect id="ewxx4pxw867f3" width="1232.510010" height="875.859985" rx="30.820000" ry="0" transform="matrix(1 0 0 1 643.89001464843750 354.29998779296875)" fill="rgb(103,103,102)" stroke="none" stroke-width="1"/><rect id="ewxx4pxw867f4" width="1149.510010" height="717.599976" rx="0" ry="0" transform="matrix(1 0 0 1 685.39001464843750 416.98999023437500)" fill="rgb(233,233,234)" stroke="none" stroke-width="1"/><ellipse id="ewxx4pxw867f5" rx="8.030000" ry="8.500000" transform="matrix(1 0 0 1 1260.15002441406250 383.57000732421875)" fill="none" stroke="rgb(108,104,103)" stroke-width="2.500000" stroke-miterlimit="10"/><path id="ewxx4pxw867f6" d="M1435.680000,993.170000L1435.680000,999.670000C1435.808874,1004.329881,1432.139675,1008.213863,1427.480000,1008.350000L1125.140000,1008.350000C1120.481831,1008.213904,1116.815496,1004.328215,1116.950000,999.670000L1116.950000,991.670000" fill="none" stroke="rgb(142,151,169)" stroke-width="1" stroke-miterlimit="10"/><line id="ewxx4pxw867f7" x1="643.890000" y1="1169.750000" x2="1876.400000" y2="1169.750000" fill="none" stroke="rgb(233,233,234)" stroke-width="5" stroke-miterlimit="10"/><path id="ewxx4pxw867f8" d="M1032.890000,1480.910000L1034.100000,1416.700000C1034.100000,1402.130000,1035.940000,1345.610000,1040.940000,1338.790000C1046.080000,1331.790000,1087.820000,1306.790000,1104.380000,1295.230000L1419.860000,1296.230000C1436.330000,1307.710000,1474.240000,1333.670000,1479.350000,1340.650000C1484.350000,1347.470000,1486.200000,1405,1486.200000,1418.560000L1487.410000,1480.910000" fill="rgb(237,105,78)" stroke="none" stroke-width="1"/><path id="ewxx4pxw867f9" d="M717.840000,1477.820000C724.200000,1476.570000,733.280000,1476.190000,744.840000,1476.190000Q861.680000,1476.250000,978.500000,1476.190000L1072.370000,1476.190000C1074.916431,1476.309888,1077.468412,1476.219582,1080,1475.920000C1086.140000,1476.150000,1092.410000,1476.180000,1098.770000,1476.180000L1421.560000,1476.180000C1427.920000,1476.180000,1434.190000,1476.180000,1440.330000,1475.920000C1442.861588,1476.219582,1445.413569,1476.309888,1447.960000,1476.190000L1541.830000,1476.190000L1774.830000,1476.190000C1796.610000,1476.190000,1802.450000,1476.930000,1802.460000,1479.680000C1802.524951,1480.752351,1802.524951,1481.827649,1802.460000,1482.900000C1802.250000,1484.660000,1795.380000,1485.620000,1781.540000,1485.820000C1778.750000,1485.820000,1775.900000,1485.820000,1773.080000,1485.820000L746.740000,1485.820000C734.270000,1485.820000,723.740000,1485.510000,717.840000,1483.950000Z" fill="rgb(108,104,103)" stroke="none" stroke-width="1"/><rect id="ewxx4pxw867f10" width="344.679993" height="323.670013" rx="0" ry="0" transform="matrix(1 0 0 1 717.84002685546875 488.88000488281250)" fill="rgb(249,179,35)" stroke="none" stroke-width="1"/><rect id="ewxx4pxw867f11" width="698.479980" height="528.429993" rx="0" ry="0" transform="matrix(1 0 0 1 1103.96997070312500 488.88000488281250)" fill="rgb(153,211,217)" stroke="none" stroke-width="1"/><g id="ewxx4pxw867f12_to" transform="translate(1067.357999,686.600001)"><rect id="ewxx4pxw867f12" width="0" height="0" rx="0" ry="0" transform="translate(-172.339996,-85.574997)" fill="rgb(81,97,114)" stroke="none" stroke-width="1"/></g></g><g id="ewxx4pxw867f13"><g id="ewxx4pxw867f14_to" transform="translate(-616.841997,-42.784996)"><path id="ewxx4pxw867f14" d="M1511.890000,643.810000L1583.570000,711L1554.280000,713.650000L1548.980000,714.140000L1551.180000,718.990000L1569,757.860000L1555.890000,763.620000L1538.950000,724.290000L1536.820000,719.290000L1532.880000,722.980000L1512,742.540000L1511.860000,643.810000" transform="translate(0,0)" fill="rgb(104,104,103)" stroke="none" stroke-width="1"/></g></g><path id="ewxx4pxw867f15" d="M1246.690000,1438.750000C1213.690000,1437.280000,1160.130000,1431.950000,1130.210000,1426.400000C1125.670000,1425.560000,1088.790000,1418.710000,1080.900000,1393.400000C1074.180000,1371.860000,1101.290000,1354.220000,1104.380000,1330C1111.070000,1277.540000,1109.880000,1198.830000,1104.380000,1138.540000C1091.490000,997.150000,1165.090000,907.110000,1194.770000,883.680000C1201.630000,878.260000,1217.480000,865.750000,1239.380000,865.920000C1255.940000,866.060000,1258.170000,872.290000,1275.040000,871.470000C1289.700000,870.760000,1296.040000,869.470000,1309.820000,867.190000C1329.320000,863.930000,1366.110000,900.290000,1375.110000,908.350000C1431.110000,958.560000,1433.110000,1072.600000,1433.110000,1072.600000C1443.530000,1242.300000,1419.270000,1310.870000,1419.110000,1357.960000C1419.040000,1381.340000,1448.180000,1397.420000,1442.360000,1415.500000C1431.280000,1449.950000,1320.360000,1438.720000,1246.700000,1438.720000" fill="rgb(162,106,84)" stroke="none" stroke-width="1"/></svg>