<svg id="ezakekyd57dd1" xmlns="http://www.w3.org/2000/svg" xmlns:xlink="http://www.w3.org/1999/xlink" viewBox="0 0 2520.300000 1500" shape-rendering="geometricPrecision" text-rendering="geometricPrecision"><style><![CDATA[#ezakekyd57dd2 {animation: ezakekyd57dd2_c_o 6000ms linear infinite normal forwards}@keyframes ezakekyd57dd2_c_o { 0% {opacity: 0} 16.666667% {opacity: 0;animation-timing-function: cubic-bezier(0.420000,0,0.580000,1)} 75% {opacity: 0;animation-timing-function: cubic-bezier(0.420000,0,0.580000,1)} 81.666667% {opacity: 1} 100% {opacity: 1} }#ezakekyd57dd38_to {animation: ezakekyd57dd38_to__to 6000ms linear infinite normal forwards}@keyframes ezakekyd57dd38_to__to { 0% {transform: translate(0px,0px)} 65% {transform: translate(0px,0px);animation-timing-function: cubic-bezier(0.420000,0,0.580000,1)} 73.333333% {transform: translate(794.229996px,588.807113px)} 100% {transform: translate(794.229996px,588.807113px)} }#ezakekyd57dd38_ts {animation: ezakekyd57dd38_ts__ts 6000ms linear infinite normal forwards}@keyframes ezakekyd57dd38_ts__ts { 0% {transform: scale(1,1)} 65% {transform: scale(1,1);animation-timing-function: cubic-bezier(0.420000,0,0.580000,1)} 73.333333% {transform: scale(0.370000,0.370000)} 100% {transform: scale(0.370000,0.370000)} }#ezakekyd57dd44 {animation: ezakekyd57dd44_s_do 6000ms linear infinite normal forwards}@keyframes ezakekyd57dd44_s_do { 0% {stroke-dashoffset: 825.970000} 16.666667% {stroke-dashoffset: 825.970000;animation-timing-function: cubic-bezier(0.420000,0,0.580000,1)} 26.666667% {stroke-dashoffset: 0} 100% {stroke-dashoffset: 0} }#ezakekyd57dd45 {animation: ezakekyd57dd45_s_do 6000ms linear infinite normal forwards}@keyframes ezakekyd57dd45_s_do { 0% {stroke-dashoffset: 1178.050000} 38.333333% {stroke-dashoffset: 1178.050000;animation-timing-function: cubic-bezier(0.420000,0,0.580000,1)} 48.333333% {stroke-dashoffset: 0} 100% {stroke-dashoffset: 0} }#ezakekyd57dd46 {animation: ezakekyd57dd46_s_do 6000ms linear infinite normal forwards}@keyframes ezakekyd57dd46_s_do { 0% {stroke-dashoffset: 302.240000} 30% {stroke-dashoffset: 302.240000;animation-timing-function: cubic-bezier(0.420000,0,0.580000,1)} 36.666667% {stroke-dashoffset: 0} 100% {stroke-dashoffset: 0} }#ezakekyd57dd47_to {animation: ezakekyd57dd47_to__to 6000ms linear infinite normal forwards}@keyframes ezakekyd57dd47_to__to { 0% {transform: translate(-878.682471px,128.869812px)} 18.333333% {transform: translate(-878.682471px,128.869812px);animation-timing-function: cubic-bezier(0.420000,0,0.580000,1)} 20% {transform: translate(-878.682471px,128.869812px);animation-timing-function: cubic-bezier(0.420000,0,0.580000,1)} 21.666667% {transform: translate(-810.438044px,70.825368px);animation-timing-function: cubic-bezier(0.420000,0,0.580000,1)} 23.333333% {transform: translate(-766.482471px,112.126374px);animation-timing-function: cubic-bezier(0.420000,0,0.580000,1)} 25% {transform: translate(-761.900098px,128.869812px);animation-timing-function: cubic-bezier(0.420000,0,0.580000,1)} 26.666667% {transform: translate(-718.560889px,112.126374px);animation-timing-function: cubic-bezier(0.420000,0,0.580000,1)} 28.333333% {transform: translate(-694.600098px,112.126374px);animation-timing-function: cubic-bezier(0.420000,0,0.580000,1)} 30% {transform: translate(-760.593991px,157.723284px);animation-timing-function: cubic-bezier(0.420000,0,0.580000,1)} 31.666667% {transform: translate(-826.587885px,203.320194px);animation-timing-function: cubic-bezier(0.420000,0,0.580000,1)} 33.333333% {transform: translate(-892.581779px,248.917104px);animation-timing-function: cubic-bezier(0.420000,0,0.580000,1)} 35% {transform: translate(-851.509911px,206.214396px);animation-timing-function: cubic-bezier(0.420000,0,0.580000,1)} 36.666667% {transform: translate(-834.032471px,220.669812px);animation-timing-function: cubic-bezier(0.420000,0,0.580000,1)} 38.333333% {transform: translate(-854.382471px,248.917104px);animation-timing-function: cubic-bezier(0.420000,0,0.580000,1)} 40% {transform: translate(-851.509911px,289.123462px);animation-timing-function: cubic-bezier(0.420000,0,0.580000,1)} 41.666667% {transform: translate(-763.000098px,247.401733px);animation-timing-function: cubic-bezier(0.420000,0,0.580000,1)} 43.333333% {transform: translate(-720.664844px,288.019812px);animation-timing-function: cubic-bezier(0.420000,0,0.580000,1)} 45% {transform: translate(-655.982471px,248.917104px);animation-timing-function: cubic-bezier(0.420000,0,0.580000,1)} 46.666667% {transform: translate(-621.609928px,248.917104px);animation-timing-function: cubic-bezier(0.420000,0,0.580000,1)} 48.333333% {transform: translate(-587.237386px,248.917104px);animation-timing-function: cubic-bezier(0.420000,0,0.580000,1)} 50% {transform: translate(-552.864844px,248.917104px);animation-timing-function: cubic-bezier(0.420000,0,0.580000,1)} 60% {transform: translate(-695.764844px,767.019812px)} 100% {transform: translate(-695.764844px,767.019812px)} }]]></style><g id="ezakekyd57dd2" opacity="0"><g id="ezakekyd57dd3"><g id="ezakekyd57dd4"><g id="ezakekyd57dd5" style="isolation:isolate"><path id="ezakekyd57dd6" style="isolation:isolate" d="M717.800000,482.300000L534.400000,482.300000L534.400000,665.800000L672,665.800000L717.900000,619.900000L717.800000,482.300000Z" fill="rgb(84,71,90)" stroke="none" stroke-width="1"/><path id="ezakekyd57dd7" d="M717.800000,617.200000L669.200000,617.200000L669.200000,665.800000L671.900000,665.800000L717.800000,619.900000L717.800000,617.200000Z" fill="rgb(255,255,255)" fill-opacity="0.4" stroke="none" stroke-width="1"/></g><g id="ezakekyd57dd8" style="isolation:isolate"><path id="ezakekyd57dd9" style="isolation:isolate" d="M935.600000,746L752.200000,746L752.200000,929.500000L889.800000,929.500000L935.700000,883.600000L935.700000,746Z" fill="rgb(221,111,87)" stroke="none" stroke-width="1"/><path id="ezakekyd57dd10" d="M935.600000,880.900000L887,880.900000L887,929.500000L889.700000,929.500000L935.600000,883.600000L935.600000,880.900000Z" fill="rgb(255,255,255)" fill-opacity="0.4" stroke="none" stroke-width="1"/></g><g id="ezakekyd57dd11" style="isolation:isolate"><path id="ezakekyd57dd12" style="isolation:isolate" d="M648.600000,973.500000L465.100000,973.500000L465.100000,1157L602.700000,1157L648.600000,1111.100000L648.600000,973.500000Z" fill="rgb(165,210,216)" stroke="none" stroke-width="1"/><path id="ezakekyd57dd13" d="M648.600000,1108.400000L600,1108.400000L600,1157L602.700000,1157L648.600000,1111.100000L648.600000,1108.400000Z" fill="rgb(255,255,255)" fill-opacity="0.4" stroke="none" stroke-width="1"/></g><g id="ezakekyd57dd14" style="isolation:isolate"><path id="ezakekyd57dd15" style="isolation:isolate" d="M1026.400000,1099L843,1099L843,1282.500000L980.600000,1282.500000L1026.500000,1236.600000L1026.400000,1099Z" fill="rgb(84,71,90)" stroke="none" stroke-width="1"/><path id="ezakekyd57dd16" d="M1026.400000,1233.900000L977.800000,1233.900000L977.800000,1282.500000L980.500000,1282.500000L1026.400000,1236.600000L1026.400000,1233.900000Z" fill="rgb(255,255,255)" fill-opacity="0.4" stroke="none" stroke-width="1"/></g><g id="ezakekyd57dd17" style="isolation:isolate"><path id="ezakekyd57dd18" style="isolation:isolate" d="M1631.200000,574L1447.800000,574L1447.800000,757.500000L1585.400000,757.500000L1631.300000,711.600000L1631.200000,574Z" fill="rgb(165,210,216)" stroke="none" stroke-width="1"/><path id="ezakekyd57dd19" d="M1631.200000,708.900000L1582.600000,708.900000L1582.600000,757.500000L1585.300000,757.500000L1631.200000,711.600000L1631.200000,708.900000Z" opacity="0.6" fill="rgb(255,255,255)" fill-opacity="0.4" stroke="none" stroke-width="1"/></g><g id="ezakekyd57dd20" style="isolation:isolate"><path id="ezakekyd57dd21" style="isolation:isolate" d="M1427.400000,1142.100000L1244,1142.100000L1244,1325.600000L1381.600000,1325.600000L1427.500000,1279.700000L1427.400000,1142.100000Z" fill="rgb(165,210,216)" stroke="none" stroke-width="1"/><path id="ezakekyd57dd22" d="M1427.400000,1277L1378.800000,1277L1378.800000,1325.600000L1381.500000,1325.600000L1427.400000,1279.700000L1427.400000,1277Z" fill="rgb(255,255,255)" fill-opacity="0.4" stroke="none" stroke-width="1"/></g><g id="ezakekyd57dd23" style="isolation:isolate"><path id="ezakekyd57dd24" style="isolation:isolate" d="M1674.400000,939.700000L1491,939.700000L1491,1123.200000L1628.600000,1123.200000L1674.500000,1077.300000L1674.400000,939.700000Z" fill="rgb(153,109,88)" stroke="none" stroke-width="1"/><path id="ezakekyd57dd25" d="M1674.400000,1074.600000L1625.800000,1074.600000L1625.800000,1123.200000L1628.500000,1123.200000L1674.400000,1077.300000L1674.400000,1074.600000Z" fill="rgb(255,255,255)" fill-opacity="0.4" stroke="none" stroke-width="1"/></g><g id="ezakekyd57dd26" style="isolation:isolate"><path id="ezakekyd57dd27" style="isolation:isolate" d="M1259.600000,499.900000L1076.200000,499.900000L1076.200000,683.400000L1213.800000,683.400000L1259.700000,637.500000L1259.600000,499.900000Z" fill="rgb(153,109,88)" stroke="none" stroke-width="1"/><path id="ezakekyd57dd28" d="M1259.600000,634.700000L1211,634.700000L1211,683.300000L1213.700000,683.300000L1259.600000,637.400000L1259.600000,634.700000Z" fill="rgb(255,255,255)" fill-opacity="0.4" stroke="none" stroke-width="1"/></g><g id="ezakekyd57dd29" style="isolation:isolate"><path id="ezakekyd57dd30" style="isolation:isolate" d="M1937.300000,837.800000L1753.900000,837.800000L1753.900000,1021.300000L1891.500000,1021.300000L1937.400000,975.400000L1937.300000,837.800000Z" fill="rgb(221,111,87)" stroke="none" stroke-width="1"/><path id="ezakekyd57dd31" d="M1937.300000,972.600000L1888.700000,972.600000L1888.700000,1021.200000L1891.400000,1021.200000L1937.300000,975.300000L1937.300000,972.600000Z" fill="rgb(255,255,255)" fill-opacity="0.4" stroke="none" stroke-width="1"/></g><g id="ezakekyd57dd32" style="isolation:isolate"><path id="ezakekyd57dd33" style="isolation:isolate" d="M2029.100000,472.700000L1845.700000,472.700000L1845.700000,656.200000L1983.300000,656.200000L2029.200000,610.300000L2029.100000,472.700000Z" fill="rgb(237,179,69)" stroke="none" stroke-width="1"/><path id="ezakekyd57dd34" d="M2029.100000,607.500000L1980.500000,607.500000L1980.500000,656.100000L1983.200000,656.100000L2029.100000,610.200000L2029.100000,607.500000Z" fill="rgb(251,250,248)" fill-opacity="0.4" stroke="none" stroke-width="1"/></g><g id="ezakekyd57dd35" style="isolation:isolate"><path id="ezakekyd57dd36" style="isolation:isolate" d="M2028,1185.300000L1844.600000,1185.300000L1844.600000,1368.800000L1982.200000,1368.800000L2028.100000,1322.900000L2028,1185.300000Z" fill="rgb(84,71,90)" stroke="none" stroke-width="1"/><path id="ezakekyd57dd37" d="M2028,1320.200000L1979.400000,1320.200000L1979.400000,1368.800000L1982.100000,1368.800000L2028,1322.900000L2028,1320.200000Z" fill="rgb(255,255,255)" fill-opacity="0.4" stroke="none" stroke-width="1"/></g></g></g></g><g id="ezakekyd57dd38_to" transform="translate(0,0)"><g id="ezakekyd57dd38_ts" transform="scale(1,1)"><g id="ezakekyd57dd38" transform="translate(0,0)"><g id="ezakekyd57dd39"><g id="ezakekyd57dd40" style="isolation:isolate"><path id="ezakekyd57dd41" style="isolation:isolate" d="M1515.300000,656.100000L1005,656.100000L1005,1166.500000L1387.800000,1166.500000L1515.400000,1038.900000L1515.300000,656.100000Z" fill="rgb(237,179,69)" stroke="none" stroke-width="1"/><path id="ezakekyd57dd42" d="M1515.300000,1031.400000L1380.200000,1031.400000L1380.200000,1166.600000L1387.700000,1166.600000L1515.300000,1039L1515.300000,1031.400000Z" fill="rgb(255,255,255)" fill-opacity="0.4" stroke="none" stroke-width="1"/></g></g><g id="ezakekyd57dd43"><path id="ezakekyd57dd44" d="M1076,829.850000C1072.393015,829.120577,1069.065327,827.387406,1066.400000,824.850000C1059.600000,818.150000,1060.700000,808.650000,1060.900000,807.150000C1061.900000,799.050000,1065.490000,792.980000,1068.090000,790.380000C1075.250000,785.070000,1078.550000,779.700000,1094.090000,779.750000C1094.290000,779.650000,1092.890000,779.750000,1094.090000,779.750000C1096.490000,779.750000,1099.190000,781.350000,1099.690000,783.450000C1100.190000,785.350000,1098.790000,787.150000,1098.490000,787.750000C1094.190000,793.950000,1090.110000,809.860000,1088.010000,822.560000C1085.910000,835.260000,1085.890000,844.950000,1091.490000,853.650000C1092.690000,855.450000,1096.190000,860.950000,1101.590000,861.450000C1108.490000,862.050000,1114.090000,854.050000,1116.990000,849.850000C1119.390000,846.350000,1121.390000,842.750000,1126.790000,824.850000C1134.490000,799.150000,1138.390000,786.350000,1138.390000,786.150000C1138.390000,785.950000,1138.290000,784.450000,1139.190000,783.850000C1139.643993,783.546663,1140.236007,783.546663,1140.690000,783.850000C1141.590000,784.650000,1140.290000,787.650000,1139.890000,788.450000C1136.690000,795.950000,1133.390000,818.250000,1130.090000,840.550000C1128.290000,852.750000,1128.090000,858.550000,1131.490000,860.950000C1134.058079,862.517537,1137.227184,862.741238,1139.990000,861.550000C1141.895288,860.599678,1143.439678,859.055288,1144.390000,857.150000C1148.055568,850.689482,1150.719240,843.709985,1152.290000,836.450000C1153.890000,829.550000,1153.890000,827.750000,1155.990000,824.550000C1157.290000,822.550000,1159.490000,819.350000,1163.590000,817.950000C1167.742579,816.758140,1172.215258,817.652676,1175.590000,820.350000C1176.390000,820.950000,1179.190000,823.250000,1178.790000,825.650000C1178.590000,826.750000,1177.790000,827.750000,1177.290000,827.650000C1176.790000,827.550000,1177.090000,825.850000,1176.390000,824.150000C1175.490000,822.050000,1173.390000,821.150000,1171.990000,820.450000C1170.590000,819.750000,1165.690000,817.650000,1161.390000,820.250000C1158.690000,821.850000,1156.190000,825.350000,1156.690000,828.750000C1157.390000,833.550000,1163.290000,833.550000,1170.390000,842.250000C1173.490000,845.950000,1174.090000,848.050000,1174.090000,849.850000C1174.190000,854.250000,1170.790000,857.350000,1170.190000,857.850000C1167.762521,859.983777,1164.621078,861.126120,1161.390000,861.050000C1159.790000,861.050000,1156.090000,860.950000,1154.390000,858.250000C1153.519940,856.920635,1153.264861,855.280840,1153.690000,853.750000C1155.090000,845.220000,1184.330000,841.040000,1187.690000,840.870000L1192.150000,840.600000C1196.775151,840.509312,1201.294269,839.198423,1205.250000,836.800000C1207.450000,835.400000,1214.250000,831.200000,1214.750000,824.500000C1214.850000,823.700000,1215.050000,819.900000,1212.750000,818C1209.350000,815.300000,1203.150000,818.600000,1202.350000,819C1193.250000,823.800000,1191.550000,835.800000,1191.350000,837.500000C1190.950000,841,1189.650000,851.600000,1196.950000,857.300000C1201.250000,860.600000,1207.850000,861.700000,1212.750000,859.300000C1213.950000,858.700000,1215.150000,857.900000,1217.850000,854.800000C1222.050000,850.100000,1225.550000,846.200000,1228.050000,840.300000C1228.050000,840.300000,1229.550000,836.700000,1231.450000,818.600000C1232.750000,817.700000,1234.450000,817,1235.450000,817.600000C1236.850000,818.500000,1236.350000,821.800000,1233.650000,831.800000C1231.443248,840.528270,1229.971436,849.426039,1229.250000,858.400000C1229.150000,859.200000,1228.800000,860.600000,1229.500000,861C1230.200000,861.400000,1229.870000,861.310000,1230.500000,861.300000C1232.500000,860.470000,1231.650000,856.410000,1232,852.980000C1233,845.040000,1232.510000,844.980000,1235.250000,834.090000C1238.350000,823.990000,1241.800000,823.600000,1244.250000,821.700000C1244.650000,821.400000,1248.750000,818.400000,1252.750000,819.800000C1253.250000,820,1255.750000,820.900000,1255.950000,822.800000C1256.150000,824.400000,1254.950000,826.200000,1252.850000,827" fill="none" stroke="rgb(103,103,103)" stroke-width="7" stroke-miterlimit="10" stroke-dashoffset="825.970000" stroke-dasharray="825.970000"/><path id="ezakekyd57dd45" d="M1136.900000,957.300000C1131.926355,961.762255,1128.730528,967.869835,1127.900000,974.500000C1127.600000,977.400000,1126.400000,988.400000,1134.200000,993.800000C1138.500000,996.800000,1145,998.200000,1150,995.400000C1154.600000,992.900000,1155.800000,988.200000,1157.900000,980.700000C1159.700000,974.100000,1161.800000,966.400000,1157.900000,959.500000C1157.300000,958.400000,1153.900000,952.500000,1149.200000,952.700000C1144.700000,952.900000,1142.100000,958.500000,1141.800000,959C1139.100000,965,1141.700000,972.500000,1145.900000,977C1152.400000,984,1164.200000,985.100000,1170.100000,980.500000C1173.600000,977.800000,1172.100000,975.300000,1177.700000,965.800000C1181.100000,960,1183.600000,956,1188.300000,954.400000C1192.100000,953.100000,1198.200000,953.200000,1200,956.600000C1202.100000,960.400000,1197.900000,966.400000,1197,966.100000C1196.100000,965.800000,1198.700000,959.700000,1196.200000,957.700000C1193.700000,955.700000,1187.500000,958.700000,1183.700000,961.800000C1178,966.400000,1172,975.900000,1175,985.200000C1175.400000,986.300000,1177.300000,992.200000,1183.200000,995C1189.100000,997.800000,1195.100000,995.400000,1196.800000,994.700000C1206.500000,990.800000,1210.200000,980.300000,1211.800000,975.600000C1214.600000,967.700000,1214.700000,959,1214.800000,955.500000C1214.800000,955,1214.200000,952.800000,1214.800000,952.500000C1215.400000,952.200000,1216.900000,954,1217.300000,954.600000C1220,958.200000,1217.300000,963.500000,1215.600000,972C1214.400000,978.200000,1212.900000,986.200000,1216.600000,993.100000C1217.500000,994.700000,1219,997.400000,1221.500000,997.800000C1226.200000,998.500000,1230.800000,990.300000,1232.700000,987.200000C1239.400000,975.500000,1242.100000,958.900000,1241.400000,955.100000C1241.169390,954.325474,1241.278436,953.489460,1241.700000,952.800000C1242.422100,952.300720,1243.377900,952.300720,1244.100000,952.800000C1245.800000,954,1244.100000,958.800000,1243.100000,962.400000C1241.700000,967.100000,1238.400000,979.800000,1241.400000,991.200000C1242.400000,995.200000,1243.700000,997,1245.400000,997.600000C1248.500000,998.800000,1252.100000,996,1253.100000,995.300000C1254.600000,994.200000,1257.800000,991.300000,1260.800000,980C1263.100000,971.400000,1262.200000,969,1265.200000,963.100000C1267.800000,958,1270.200000,956.200000,1271.100000,955.600000C1274.271393,953.656248,1278.008216,952.845428,1281.700000,953.300000C1284.500000,953.600000,1288.500000,954.100000,1289.900000,957C1291.900000,961.200000,1286.800000,967.500000,1285.200000,967.100000C1284.600000,967,1284.300000,965.900000,1284.300000,965.200000C1284.300000,963.500000,1286.200000,963,1286.700000,961.400000C1287.300000,959.500000,1285.700000,956.900000,1283.900000,955.600000C1279.800000,952.800000,1273.800000,956.400000,1273.100000,956.800000C1269.400000,959.100000,1265.100000,964.200000,1266.300000,968.300000C1268,973.900000,1278.300000,971.800000,1282.700000,979.600000C1284.144536,982.329926,1284.569937,985.484977,1283.900000,988.500000C1282.755638,992.636328,1279.593642,995.911252,1275.500000,997.200000C1274.400000,997.600000,1268.800000,999.400000,1265.400000,995.800000C1255.400000,985.230000,1299.260000,978.130000,1300.610000,977.800000L1301.400000,977.520000C1305.079362,977.238215,1308.657591,976.181786,1311.900000,974.420000C1314,973.220000,1323,968.320000,1322.600000,961.020000C1322.400000,958.120000,1320.800000,954.420000,1317.900000,953.420000C1312,951.320000,1304.500000,961.520000,1303.800000,962.420000C1302.900000,963.620000,1294.500000,975.820000,1300,987.020000C1300.700000,988.420000,1303.500000,994.120000,1309.800000,995.920000C1315.400000,997.520000,1320.300000,994.820000,1321.900000,993.920000C1326.800000,991.220000,1329.100000,986.920000,1330.400000,984.520000C1332.400000,980.720000,1331.600000,979.920000,1333.700000,973.820000C1335.800000,967.720000,1337.100000,963.520000,1340.700000,959.720000C1344.069294,956.279011,1348.448059,954.002053,1353.200000,953.220000C1355.900000,952.820000,1361.600000,952.620000,1362.600000,955.020000C1362.941564,955.797317,1362.783942,956.703640,1362.200000,957.320000C1361.100000,958.320000,1358.900000,956.820000,1356.600000,956.220000C1351,954.720000,1345.600000,958.120000,1344.700000,958.720000C1340.500000,961.320000,1339,965.320000,1337.100000,970.620000C1335.200000,975.920000,1331.900000,984.720000,1336.200000,991.720000C1336.900000,992.820000,1339.100000,996.420000,1342.500000,996.820000C1347.400000,997.420000,1351.600000,991.120000,1353.500000,988.320000C1357.700000,982.120000,1358.300000,977.220000,1360.700000,966.820000C1364.400000,951.020000,1364.900000,954.120000,1366.700000,944.420000C1368.600000,933.920000,1369.800000,920.220000,1368.300000,916.820000C1368.200000,916.520000,1367.600000,915.420000,1368.100000,914.820000C1368.600000,914.220000,1370.400000,914.820000,1370.800000,915.020000C1375,917.020000,1369.900000,938.720000,1368.600000,943.920000C1366.400000,953.120000,1363.200000,964.120000,1361.600000,977.920000C1361.300000,980.520000,1360.500000,988.020000,1364.700000,993.420000C1366.900000,996.220000,1368.900000,996.620000,1369.400000,996.720000C1372.600000,997.220000,1375.300000,994.620000,1376.600000,993.320000C1384.200000,986.120000,1385.700000,968.520000,1386,964.920000" fill="none" stroke="rgb(103,103,103)" stroke-width="7" stroke-miterlimit="10" stroke-dashoffset="1178.050000" stroke-dasharray="1178.050000"/><path id="ezakekyd57dd46" d="M1080.400000,958.300000C1078.600000,958.500000,1073.800000,958.900000,1069.600000,956C1061.500000,950.400000,1063.600000,938.500000,1063.700000,938C1065.500000,928.800000,1073.600000,924.100000,1076.600000,922.300000C1084.300000,917.800000,1092,917.800000,1102.600000,917.900000C1108.499921,917.733208,1114.400641,918.202583,1120.200000,919.300000C1126.200000,920.500000,1128.200000,921.600000,1132.400000,921.200000C1140.200000,920.300000,1145.300000,914.900000,1145.500000,915.100000C1145.900000,915.600000,1141.800000,921.700000,1134.700000,924C1126.400000,926.700000,1117.100000,922.900000,1116,921.800000C1115.946061,921.745695,1115.875808,921.710568,1115.800000,921.700000C1114.800000,921.600000,1113.600000,927,1112.300000,933.400000C1108.800000,950.900000,1109.900000,953.700000,1106.900000,956.300000C1101.700000,960.900000,1091.700000,958.100000,1091.700000,957.500000C1091.700000,956.400000,1123.300000,957.400000,1123.300000,956.100000C1123.300000,955.300000,1112.100000,952.600000,1107.400000,957.600000C1104.900000,960.300000,1105.100000,964.300000,1105.200000,966.300000C1105.500000,973.900000,1105.200000,984.600000,1103,1000.500000" fill="none" stroke="rgb(103,103,103)" stroke-width="7" stroke-miterlimit="10" stroke-dashoffset="302.240000" stroke-dasharray="302.240000"/></g></g></g></g><g id="ezakekyd57dd47_to" transform="translate(-878.682471,128.869812)"><g id="ezakekyd57dd47" transform="translate(0,0)"><g id="ezakekyd57dd48"><path id="ezakekyd57dd49" d="M1974.700000,778C1971.500000,775.200000,1974.400000,768,1973,761.500000C1972.156593,757.012806,1970.310674,752.774029,1967.600000,749.100000C1963.700000,744,1960.800000,743.900000,1959.900000,739.800000C1959,736,1961.200000,734.400000,1959.900000,730.500000C1958.700000,726.900000,1956.400000,726.900000,1956,724.300000C1955.400000,719.500000,1962.600000,712.900000,1967.400000,714C1970.200000,714.600000,1970.300000,717.400000,1974.600000,719.200000C1977.700000,720.400000,1978.500000,719.300000,1981,720.200000C1985.800000,721.900000,1985,726.600000,1990.500000,732.100000C1993.431818,734.903944,1996.949884,737.021615,2000.800000,738.300000C2004.200000,739.500000,2006.700000,738.400000,2011.900000,739.800000C2014,740.400000,2017.700000,740.700000,2020.900000,744.500000" fill="rgb(186,186,186)" stroke="none" stroke-width="1"/><path id="ezakekyd57dd50" d="M1978.800000,788.400000C1977.616297,787.067392,1976.608099,785.588702,1975.800000,784C1971.800000,776.100000,1980.100000,762.100000,1986.800000,755.800000C1987.800000,754.900000,2006.400000,740,2024.100000,744.200000C2026.200000,744.700000,2028.400000,747.600000,2029.600000,748.100000" fill="rgb(103,103,103)" stroke="none" stroke-width="1"/><path id="ezakekyd57dd51" d="M2230,992.600000L2029.500000,748.200000C2024.700000,748.900000,2009.300000,752.500000,2000.500000,758.800000C1982.100000,772.100000,1981.100000,784,1978.700000,788.400000L2183.200000,1027.900000C2196.500000,1035.700000,2213,1033.600000,2222.800000,1023.600000C2230.500000,1015.700000,2233.200000,1003.800000,2230,992.600000Z" fill="rgb(233,232,234)" stroke="none" stroke-width="1"/><path id="ezakekyd57dd52" d="M2030.200000,708.900000C2046.400000,707.600000,2129.400000,770.600000,2165.500000,773.500000C2180.600000,774.700000,2181.900000,756.800000,2193.800000,763.400000C2226,781.600000,2327,898.700000,2371.400000,929C2400.200000,948.600000,2310.400000,1069.400000,2312.800000,1193.500000C2314,1252.300000,2333.600000,1289.300000,2399.600000,1405.500000C2593,1746.200000,2607.600000,1831.600000,2607.600000,1831.600000C2570.600000,1902.300000,2358,1940.700000,2302.700000,1837.700000C2287.500000,1809.400000,2283.400000,1716.200000,2230,1520.700000C2186.800000,1362.600000,2143.900000,1355.100000,2084.600000,1165.300000C2076.200000,1138.200000,2055.800000,1070.400000,2013.900000,985.600000C2002.600000,962.800000,1965.800000,938.400000,1967.500000,900.800000C1968.200000,884.500000,1974.800000,871.700000,1975.600000,842.200000C1976.200000,816.600000,1964.400000,804.700000,1971.600000,795.800000C1979,786.500000,1999.500000,785.900000,2014,793.800000C2039.600000,807.700000,2034.200000,841.400000,2052.400000,886.700000C2069.100000,928.300000,2106.400000,937.100000,2119.500000,948.600000C2166,989.300000,2168.900000,1027.800000,2191.700000,1013.900000C2207.900000,1004.100000,2201.100000,962.600000,2193.700000,939.200000C2178,889.400000,2139.700000,857.800000,2112.900000,836.200000C2063.500000,796.400000,2034.400000,793,2024.100000,759.500000C2018.600000,741.400000,2017,710,2030.200000,708.900000Z" fill="rgb(225,174,146)" stroke="none" stroke-width="1"/><path id="ezakekyd57dd53" d="M2131.782471,1577.303700C2147.982471,1576.003700,2164.482471,1517.800000,2200.582471,1520.700000C2215.682471,1521.900000,2088.686671,1514.894286,2160.382471,1493.589579C2192.582471,1511.789579,2055.782471,1236.065536,2100.182471,1266.365536C2128.982471,1285.965536,2369,1091.530188,2371.400000,1215.630188C2372.600000,1274.430188,2395.282471,1289.300000,2461.282471,1405.500000C2654.682471,1746.200000,2607.600000,1831.600000,2607.600000,1831.600000C2570.600000,1902.300000,2358,1940.700000,2302.700000,1837.700000C2287.500000,1809.400000,2283.400000,1800.708407,2230,1605.208407C2186.800000,1447.108407,2385.982471,1814.940340,2326.682471,1625.140340C2441.860459,1725.604715,2265.282471,1690.008407,2223.382471,1605.208407C2212.082471,1582.408407,2176.982471,1614.903700,2178.682471,1577.303700C2179.382471,1561.003700,2200.482471,1606.803700,2201.282471,1577.303700C2201.882471,1551.703700,2133.400000,1502.489579,2140.600000,1493.589579C2347.319335,2289.539695,2257.097099,2267.021374,2100.182471,1493.589579C2125.782471,1507.489579,2131.582471,1553.530188,2149.782471,1598.830188C2166.482471,1640.430188,2188.182471,1587.330188,2201.282471,1598.830188C2247.782471,1639.530188,2112.709140,1710.795301,2135.509140,1696.895301C2151.709140,1687.095301,2186.082471,1675.731070,2178.682471,1652.331070C2162.982471,1602.531070,2150.882471,1718.495301,2124.082471,1696.895301C2074.682471,1657.095301,2031.200000,1574.926219,2020.900000,1541.426219C2015.400000,1523.326219,2118.582471,1578.403700,2131.782471,1577.303700Z" fill="rgb(237,106,79)" stroke="none" stroke-width="1"/><path id="ezakekyd57dd54" d="M2088,916.400000L2183.200000,1027.900000C2196.500000,1035.700000,2213,1033.600000,2222.800000,1023.600000C2230.500000,1015.700000,2233.200000,1003.800000,2230,992.600000L2140.600000,883.700000" fill="rgb(233,232,234)" stroke="none" stroke-width="1"/></g></g></g><g id="ezakekyd57dd55"><g id="ezakekyd57dd56"><g id="ezakekyd57dd57"><path id="ezakekyd57dd58" d="M717.800000,1477.800000C724.200000,1476.600000,733.200000,1476.200000,744.800000,1476.200000L1072.400000,1476.200000C1074.937253,1476.316931,1077.479859,1476.216565,1080,1475.900000C1086.100000,1476.100000,1092.400000,1476.200000,1098.800000,1476.200000L1421.600000,1476.200000C1428,1476.200000,1434.200000,1476.200000,1440.400000,1475.900000C1442.920328,1476.214297,1445.462740,1476.314655,1448,1476.200000L1774.900000,1476.200000C1796.700000,1476.200000,1802.500000,1476.900000,1802.500000,1479.700000C1802.500000,1480.800000,1802.600000,1481.800000,1802.500000,1482.900000C1802.300000,1484.700000,1795.400000,1485.600000,1781.600000,1485.800000L746.800000,1485.800000C734.300000,1485.800000,723.800000,1485.500000,717.900000,1483.900000C717.800000,1481.900000,717.800000,1479.900000,717.800000,1477.800000Z" fill="rgb(108,104,103)" stroke="none" stroke-width="1"/></g><rect id="ezakekyd57dd59" width="1807.300000" height="590.801764" rx="0" ry="0" transform="matrix(1 0 0 1 355.89999999999998 1485.79999999999995)" fill="rgb(255,255,255)" stroke="none" stroke-width="1"/></g></g></svg>