<svg id="e4086odgvln81" xmlns="http://www.w3.org/2000/svg" xmlns:xlink="http://www.w3.org/1999/xlink" viewBox="0 0 2520.300000 1500" shape-rendering="geometricPrecision" text-rendering="geometricPrecision"><style><![CDATA[#e4086odgvln822_to {animation: e4086odgvln822_to__to 6000ms linear infinite normal forwards}@keyframes e4086odgvln822_to__to { 0% {transform: translate(-0.818484px,-3.199993px)} 25% {transform: translate(-0.818484px,-3.199993px)} 50% {transform: translate(398.009993px,-95.829956px)} 100% {transform: translate(398.009993px,-95.829956px)} }#e4086odgvln823_to {animation: e4086odgvln823_to__to 6000ms linear infinite normal forwards}@keyframes e4086odgvln823_to__to { 0% {transform: translate(0px,0px)} 25% {transform: translate(0px,0px)} 50% {transform: translate(531.599715px,-96.620056px)} 100% {transform: translate(531.599715px,-96.620056px)} }#e4086odgvln824_to {animation: e4086odgvln824_to__to 6000ms linear infinite normal forwards}@keyframes e4086odgvln824_to__to { 0% {transform: translate(0px,0px)} 25% {transform: translate(0px,0px)} 50% {transform: translate(405.317396px,-33.876274px)} 100% {transform: translate(405.317396px,-33.876274px)} }#e4086odgvln826 {animation: e4086odgvln826_f_o 6000ms linear infinite normal forwards}@keyframes e4086odgvln826_f_o { 0% {fill-opacity: 1} 25% {fill-opacity: 1} 50% {fill-opacity: 0} 100% {fill-opacity: 0} }#e4086odgvln827_to {animation: e4086odgvln827_to__to 6000ms linear infinite normal forwards}@keyframes e4086odgvln827_to__to { 0% {transform: translate(0px,0px)} 25% {transform: translate(0px,0px)} 50% {transform: translate(408.369978px,-388.589966px)} 100% {transform: translate(408.369978px,-388.589966px)} }#e4086odgvln828_to {animation: e4086odgvln828_to__to 6000ms linear infinite normal forwards}@keyframes e4086odgvln828_to__to { 0% {transform: translate(0px,0px)} 25% {transform: translate(0px,0px)} 50% {transform: translate(567.930017px,-467.990051px)} 100% {transform: translate(567.930017px,-467.990051px)} }#e4086odgvln829_to {animation: e4086odgvln829_to__to 6000ms linear infinite normal forwards}@keyframes e4086odgvln829_to__to { 0% {transform: translate(0px,0px)} 25% {transform: translate(0px,0px)} 50% {transform: translate(766.666307px,-563.838692px)} 100% {transform: translate(766.666307px,-563.838692px)} }#e4086odgvln831 {animation: e4086odgvln831_f_o 6000ms linear infinite normal forwards}@keyframes e4086odgvln831_f_o { 0% {fill-opacity: 1} 25% {fill-opacity: 1} 50% {fill-opacity: 0} 100% {fill-opacity: 0} }#e4086odgvln832_to {animation: e4086odgvln832_to__to 6000ms linear infinite normal forwards}@keyframes e4086odgvln832_to__to { 0% {transform: translate(0px,0px)} 25% {transform: translate(0px,0px)} 50% {transform: translate(-130.050005px,-176.229980px)} 100% {transform: translate(-130.050005px,-176.229980px)} }#e4086odgvln833_to {animation: e4086odgvln833_to__to 6000ms linear infinite normal forwards}@keyframes e4086odgvln833_to__to { 0% {transform: translate(0px,0px)} 25% {transform: translate(0px,0px)} 50% {transform: translate(-210.109961px,-177.020020px)} 100% {transform: translate(-210.109961px,-177.020020px)} }#e4086odgvln834_to {animation: e4086odgvln834_to__to 6000ms linear infinite normal forwards}@keyframes e4086odgvln834_to__to { 0% {transform: translate(0px,0px)} 25% {transform: translate(0px,0px)} 50% {transform: translate(-337.076685px,-112.532550px)} 100% {transform: translate(-337.076685px,-112.532550px)} }#e4086odgvln836 {animation: e4086odgvln836_f_o 6000ms linear infinite normal forwards}@keyframes e4086odgvln836_f_o { 0% {fill-opacity: 1} 25% {fill-opacity: 1} 50% {fill-opacity: 0} 100% {fill-opacity: 0} }#e4086odgvln837_to {animation: e4086odgvln837_to__to 6000ms linear infinite normal forwards}@keyframes e4086odgvln837_to__to { 0% {transform: translate(0px,0px)} 25% {transform: translate(0px,0px)} 50% {transform: translate(-210.560015px,-471.369995px)} 100% {transform: translate(-210.560015px,-471.369995px)} }#e4086odgvln838_to {animation: e4086odgvln838_to__to 6000ms linear infinite normal forwards}@keyframes e4086odgvln838_to__to { 0% {transform: translate(0px,0px)} 25% {transform: translate(0px,0px)} 50% {transform: translate(-317.080054px,-550.770081px)} 100% {transform: translate(-317.080054px,-550.770081px)} }#e4086odgvln839_to {animation: e4086odgvln839_to__to 6000ms linear infinite normal forwards}@keyframes e4086odgvln839_to__to { 0% {transform: translate(0px,0px)} 25% {transform: translate(0px,0px)} 50% {transform: translate(-771.124207px,-646.697650px)} 100% {transform: translate(-771.124207px,-646.697650px)} }#e4086odgvln841 {animation: e4086odgvln841_f_o 6000ms linear infinite normal forwards}@keyframes e4086odgvln841_f_o { 0% {fill-opacity: 1} 25% {fill-opacity: 1} 50% {fill-opacity: 0} 100% {fill-opacity: 0} }#e4086odgvln843 {animation: e4086odgvln843_c_o 6000ms linear infinite normal forwards}@keyframes e4086odgvln843_c_o { 0% {opacity: 0} 50% {opacity: 0} 60% {opacity: 1} 100% {opacity: 1} }]]></style><g id="e4086odgvln82"><path id="e4086odgvln83" d="M1032.890000,1480.910000L1034.100000,1416.700000C1034.100000,1402.130000,1035.940000,1345.610000,1040.940000,1338.790000C1046.080000,1331.790000,1087.820000,1296.480000,1104.380000,1284.960000L1419.860000,1296.230000C1436.330000,1307.710000,1474.240000,1333.670000,1479.350000,1340.650000C1484.350000,1347.470000,1486.200000,1405,1486.200000,1418.560000L1487.410000,1480.910000" fill="rgb(237,105,78)" stroke="none" stroke-width="1"/><rect id="e4086odgvln84" width="247.089996" height="217.820007" rx="0" ry="0" transform="matrix(1 0 0 1 1137.67004394531250 1080.83996582031250)" fill="rgb(125,82,68)" stroke="none" stroke-width="1"/><path id="e4086odgvln85" d="M1223.880000,1189.050000C1213.560000,1202.250000,1227.740000,1216.390000,1217.700000,1240.260000C1207.090000,1265.480000,1183.160000,1268.940000,1184.700000,1277.410000C1188.700000,1298.410000,1338.700000,1294.860000,1341.220000,1275.410000C1342.050000,1268.940000,1325.600000,1267.840000,1314.440000,1249.310000C1300.510000,1226.160000,1314.790000,1208.960000,1303.120000,1193.070000C1287.570000,1171.830000,1238.440000,1170.410000,1223.880000,1189.050000Z" fill="rgb(226,175,147)" stroke="none" stroke-width="1"/><path id="e4086odgvln86" d="M1397.580000,1073.530000C1395.304351,1072.513055,1392.748524,1072.308306,1390.340000,1072.950000C1391.080000,1037.470000,1386.630000,985.790000,1365.140000,951.950000C1339.970000,912.330000,1279.070000,888.660000,1228.290000,902.530000C1150.500000,923.770000,1119.630000,1032.600000,1143.150000,1109.130000C1155.910000,1150.680000,1194.850000,1215.700000,1257.690000,1218.860000C1318.170000,1221.860000,1361.570000,1165.670000,1381.130000,1123.630000C1386.593510,1122.060555,1391.560048,1119.108875,1395.550000,1115.060000C1407.900000,1102.350000,1407,1078.280000,1397.580000,1073.530000Z" fill="rgb(226,175,147)" stroke="none" stroke-width="1"/><path id="e4086odgvln87" d="M1123.780000,1314L1203.220000,1258.840000Q1184.740000,1311.220000,1166.280000,1363.590000C1151.140000,1370.190000,1138.920000,1307.370000,1123.780000,1314Z" fill="rgb(197,88,65)" stroke="none" stroke-width="1"/><path id="e4086odgvln88" d="M1204.270000,1267.290000C1219.780000,1279.850000,1242.440000,1293.690000,1267.610000,1290.660000C1297.480000,1287.080000,1325.820000,1267.850000,1325.820000,1267.850000C1325.820000,1267.850000,1329.620000,1302.350000,1328.100000,1317.380000L1294.150000,1458C1291.890000,1458.920000,1229.930000,1464.520000,1214.230000,1458.510000L1192.500000,1324.420000C1190.890000,1299.480000,1203.500000,1279,1204.270000,1267.290000Z" fill="rgb(230,213,215)" stroke="none" stroke-width="1"/><path id="e4086odgvln89" d="M1320.640000,1257.790000L1362.870000,1354.070000L1362.870000,1354.070000C1352.870000,1358,1350.870000,1415.280000,1350.870000,1415.280000L1303.500000,1477.610000C1291.670000,1484.270000,1280.240000,1490.700000,1274.400000,1486.510000C1256.880000,1473.930000,1329.550000,1394.160000,1320.620000,1291.180000C1319.150000,1273.900000,1315.690000,1259.910000,1320.640000,1257.790000Z" fill="rgb(197,88,65)" stroke="none" stroke-width="1"/><path id="e4086odgvln810" d="M1390.420000,1298.660000L1320.640000,1258.930000Q1339.120000,1311.310000,1357.580000,1363.680000C1372.720000,1370.300000,1375.290000,1292.050000,1390.420000,1298.660000Z" fill="rgb(197,88,65)" stroke="none" stroke-width="1"/><path id="e4086odgvln811" d="M1203.220000,1257.680000L1161,1354L1161,1354C1171,1357.930000,1173,1415.210000,1173,1415.210000L1220.360000,1477.540000C1232.200000,1484.200000,1243.630000,1490.630000,1249.470000,1486.440000C1266.990000,1473.860000,1194.320000,1394.090000,1203.250000,1291.110000C1204.710000,1273.790000,1208.170000,1259.800000,1203.220000,1257.680000Z" fill="rgb(197,88,65)" stroke="none" stroke-width="1"/><path id="e4086odgvln812" d="M1426,1052.170000C1426,1052.170000,1424.060000,949.170000,1368,903.870000C1359,896.590000,1322.210000,863.760000,1302.710000,866.710000C1288.970000,868.780000,1282.590000,869.930000,1267.930000,870.570000C1251.060000,871.310000,1248.830000,865.680000,1232.270000,865.570000C1210.370000,865.410000,1194.520000,876.710000,1187.660000,881.570000C1158,902.750000,1084.430000,984,1097.320000,1111.700000C1100.908783,1148.341351,1102.384559,1185.158963,1101.740000,1221.970000L1101.740000,1221.970000C1101.490000,1234.530000,1100.960000,1246.720000,1100.100000,1258.170000L1100.010000,1259.350000C1099.940000,1260.290000,1099.860000,1261.230000,1099.780000,1262.160000L1099.630000,1263.990000L1099.420000,1266.390000C1099.290000,1267.730000,1099.170000,1269.050000,1099.040000,1270.390000C1099.040000,1270.880000,1098.930000,1271.390000,1098.880000,1271.850000C1098.780000,1272.850000,1098.680000,1273.850000,1098.570000,1274.760000L1098.390000,1276.330000C1098.280000,1277.330000,1098.160000,1278.250000,1098.040000,1279.200000C1098.040000,1279.640000,1097.930000,1280.090000,1097.880000,1280.530000C1097.700000,1281.900000,1097.520000,1283.250000,1097.330000,1284.530000L1097.330000,1284.530000C1096.410000,1291.070000,1093.330000,1297.070000,1089.660000,1302.800000C1089.310000,1303.360000,1088.950000,1303.910000,1088.580000,1304.470000C1084.240000,1310.990000,1079.320000,1317.180000,1076.140000,1323.470000C1075.860000,1324.010000,1075.600000,1324.560000,1075.350000,1325.110000C1075.100000,1325.660000,1074.770000,1326.420000,1074.520000,1327.110000C1074.157377,1328.032846,1073.843610,1328.974150,1073.580000,1329.930000C1073.360349,1330.760382,1073.183449,1331.601488,1073.050000,1332.450000C1072.523486,1335.604129,1072.798588,1338.840020,1073.850000,1341.860000C1075.358224,1346.058326,1077.783764,1349.867448,1080.950000,1353.010000C1082.520778,1354.612462,1084.219754,1356.084016,1086.030000,1357.410000C1096.910000,1365.480000,1111.500000,1369.290000,1118.900000,1370.820000L1120.060000,1371.060000L1121.940000,1371.410000L1123.160000,1371.620000C1153.080000,1376.620000,1182.110000,1365.350000,1181.850000,1359.030000C1178.196603,1358.479162,1174.594532,1357.629648,1171.080000,1356.490000C1163.270000,1353.990000,1153.160000,1349.260000,1147.810000,1340.710000C1145.512570,1336.933263,1144.314322,1332.590482,1144.350000,1328.170000C1144.240000,1320.170000,1147.150000,1311.680000,1149.770000,1304.070000L1150.160000,1302.930000L1150.310000,1302.480000L1150.310000,1302.480000C1151.410000,1299.160000,1158.310000,1277.760000,1173.630000,1219.380000C1189.450000,1159.010000,1145.630000,1152.280000,1159.960000,1090.290000C1165.090000,1068.080000,1172.960000,1042.210000,1198.180000,1005.430000C1229.030000,960.430000,1264.020000,937.760000,1264.020000,937.760000C1308.020000,978.460000,1370.310000,1011.320000,1384.770000,1037.260000C1398.330000,1061.580000,1385.640000,1094.600000,1377.890000,1167.860000C1371.780000,1225.500000,1361.500000,1282.270000,1361.500000,1282.270000C1373.400000,1293.340000,1410.560000,1313.340000,1414.760000,1296.120000C1420.630000,1272,1440.430000,1134,1426,1052.170000Z" fill="rgb(162,106,84)" stroke="none" stroke-width="1"/><path id="e4086odgvln813" d="M1247,1113.650000C1246.949753,1111.197278,1248.332332,1108.939847,1250.540000,1107.870000Q1265.920000,1099.020000,1281.300000,1107.930000C1283.518271,1109.020351,1284.880428,1111.320709,1284.770000,1113.790000" fill="none" stroke="rgb(181,138,114)" stroke-width="3" stroke-miterlimit="10"/><ellipse id="e4086odgvln814" rx="12.040000" ry="11.570000" transform="matrix(1 0 0 1 1333.18994140625000 1053.13000488281250)" fill="rgb(103,103,102)" stroke="none" stroke-width="1"/><ellipse id="e4086odgvln815" rx="12.040000" ry="11.570000" transform="matrix(1 0 0 1 1199.51000976562500 1051.69995117187500)" fill="rgb(103,103,102)" stroke="none" stroke-width="1"/><path id="e4086odgvln816" d="M1199.670000,1014.640000C1206.498195,1014.534368,1213.221498,1016.327710,1219.090000,1019.820000C1221.090000,1020.990000,1223.530000,1022.170000,1221.690000,1025.230000C1220.200000,1027.710000,1218.550000,1029.080000,1215.350000,1027.230000C1204.980000,1021.340000,1194.410000,1021.020000,1183.960000,1027.100000C1180.840000,1028.910000,1178.960000,1027.380000,1177.420000,1025.020000C1175.330000,1021.900000,1178.070000,1020.910000,1180.010000,1019.730000C1185.947954,1016.203074,1192.766552,1014.437730,1199.670000,1014.640000Z" fill="rgb(103,103,102)" stroke="none" stroke-width="1"/><path id="e4086odgvln817" d="M1333.350000,1014.640000C1340.175201,1014.533067,1346.895638,1016.326569,1352.760000,1019.820000C1354.760000,1020.990000,1357.210000,1022.170000,1355.370000,1025.230000C1353.880000,1027.710000,1352.230000,1029.080000,1349.030000,1027.230000C1338.650000,1021.340000,1328.090000,1021.020000,1317.630000,1027.100000C1314.520000,1028.910000,1312.630000,1027.380000,1311.100000,1025.020000C1309,1021.900000,1311.750000,1020.910000,1313.690000,1019.730000C1319.627312,1016.201532,1326.446365,1014.436070,1333.350000,1014.640000Z" fill="rgb(103,103,102)" stroke="none" stroke-width="1"/><path id="e4086odgvln818" d="M1414.840000,1295.920000L1414.840000,1295.920000L1380.260000,1294.680000C1395,1302.450000,1412.070000,1307.260000,1414.840000,1295.920000Z" fill="rgb(237,105,78)" stroke="none" stroke-width="1"/><path id="e4086odgvln819" d="M1265.650000,1181.860000C1268.720000,1181.860000,1295.350000,1180.080000,1302.830000,1150.470000L1301.160000,1148.780000C1292.710000,1141.300000,1289.090000,1141.490000,1285.160000,1141.960000C1283.620000,1142.140000,1281.950000,1142.180000,1273.370000,1144.960000C1272.670000,1145.180000,1267.670000,1146.580000,1265.920000,1146.580000L1265.030000,1146.630000C1262.503156,1146.309171,1260.009952,1145.763678,1257.580000,1145C1249,1142.190000,1247.330000,1142.150000,1245.790000,1142C1241.790000,1141.520000,1238.200000,1141.340000,1229.790000,1148.820000L1228.120000,1150.500000C1235.600000,1180.120000,1262.230000,1181.900000,1265.300000,1181.900000Z" fill="rgb(197,88,65)" stroke="none" stroke-width="1"/><path id="e4086odgvln820" d="M717.840000,1477.820000C724.200000,1476.570000,733.280000,1476.190000,744.840000,1476.190000Q861.680000,1476.250000,978.500000,1476.190000L1072.370000,1476.190000C1074.916431,1476.309888,1077.468412,1476.219582,1080,1475.920000C1086.140000,1476.150000,1092.410000,1476.180000,1098.770000,1476.180000L1421.560000,1476.180000C1427.920000,1476.180000,1434.190000,1476.180000,1440.330000,1475.920000C1442.861588,1476.219582,1445.413569,1476.309888,1447.960000,1476.190000L1541.830000,1476.190000L1774.830000,1476.190000C1796.610000,1476.190000,1802.450000,1476.930000,1802.460000,1479.680000C1802.524951,1480.752351,1802.524951,1481.827649,1802.460000,1482.900000C1802.250000,1484.660000,1795.380000,1485.620000,1781.540000,1485.820000C1778.750000,1485.820000,1775.900000,1485.820000,1773.080000,1485.820000L746.740000,1485.820000C734.270000,1485.820000,723.740000,1485.510000,717.840000,1483.950000Z" fill="rgb(108,104,103)" stroke="none" stroke-width="1"/></g><g id="e4086odgvln821"><g id="e4086odgvln822_to" transform="translate(-0.818484,-3.199993)"><circle id="e4086odgvln822" r="24.590000" transform="translate(967.820007,923.109985)" fill="rgb(230,213,215)" stroke="none" stroke-width="1"/></g><g id="e4086odgvln823_to" transform="translate(0,0)"><circle id="e4086odgvln823" r="36.820000" transform="translate(861.239990,827.280029)" fill="rgb(230,213,215)" stroke="none" stroke-width="1"/></g><g id="e4086odgvln824_to" transform="translate(0,0)"><g id="e4086odgvln824" transform="translate(0,0)"><ellipse id="e4086odgvln825" rx="274.100006" ry="207.619995" transform="matrix(0.99911550613805 -0.04205003441739 0.04205003441739 0.99911550613805 861.26034434451935 516.30815542970151)" fill="rgb(245,233,232)" stroke="none" stroke-width="1"/><text id="e4086odgvln826" dx="0" dy="0" font-family="Avenir-Roman, Avenir" font-size="84" transform="matrix(1 0 0 1 645.60998535156250 548.17999267578125)" fill="rgb(103,103,102)" stroke="none" stroke-width="1"><![CDATA[Technology]]></text></g></g><g id="e4086odgvln827_to" transform="translate(0,0)"><circle id="e4086odgvln827" r="24.590000" transform="translate(957.460022,1215.869995)" fill="rgb(230,213,215)" stroke="none" stroke-width="1"/></g><g id="e4086odgvln828_to" transform="translate(0,0)"><circle id="e4086odgvln828" r="36.820000" transform="translate(824.419983,1198.650024)" fill="rgb(230,213,215)" stroke="none" stroke-width="1"/></g><g id="e4086odgvln829_to" transform="translate(0,0)"><g id="e4086odgvln829" transform="translate(0,0)"><ellipse id="e4086odgvln830" rx="274.100006" ry="207.619995" transform="matrix(0.99911550613805 -0.04205003441739 0.04205003441739 0.99911550613805 496.27331757016918 1048.06644809562454)" fill="rgb(245,233,232)" stroke="none" stroke-width="1"/><text id="e4086odgvln831" dx="0" dy="0" font-family="Avenir-Roman, Avenir" font-size="84" transform="matrix(1 0 0 1 364.76998901367188 1090.58996582031250)" fill="rgb(103,103,102)" stroke="none" stroke-width="1"><![CDATA[Design]]></text></g></g><g id="e4086odgvln832_to" transform="translate(0,0)"><circle id="e4086odgvln832" r="24.590000" transform="translate(1495.880005,1003.510010)" fill="rgb(230,213,215)" stroke="none" stroke-width="1"/></g><g id="e4086odgvln833_to" transform="translate(0,0)"><circle id="e4086odgvln833" r="36.820000" transform="translate(1602.459961,907.679993)" fill="rgb(230,213,215)" stroke="none" stroke-width="1"/></g><g id="e4086odgvln834_to" transform="translate(0,0)"><g id="e4086odgvln834" transform="translate(0,0)"><ellipse id="e4086odgvln835" rx="207.619995" ry="274.100006" transform="matrix(0.04205009678001 -0.99911550351338 0.99911550351338 0.04205009678001 1602.52576492888693 596.76034454726118)" fill="rgb(245,233,232)" stroke="none" stroke-width="1"/><text id="e4086odgvln836" dx="0" dy="0" font-family="Avenir-Roman, Avenir" font-size="84" transform="matrix(1 0 0 1 1440.70996093750000 628.59002685546875)" fill="rgb(103,103,102)" stroke="none" stroke-width="1"><![CDATA[Business]]></text></g></g><g id="e4086odgvln837_to" transform="translate(0,0)"><circle id="e4086odgvln837" r="24.590000" transform="translate(1576.390015,1298.650024)" fill="rgb(230,213,215)" stroke="none" stroke-width="1"/></g><g id="e4086odgvln838_to" transform="translate(0,0)"><circle id="e4086odgvln838" r="36.820000" transform="translate(1709.430054,1281.430054)" fill="rgb(230,213,215)" stroke="none" stroke-width="1"/></g><g id="e4086odgvln839_to" transform="translate(0,0)"><g id="e4086odgvln839" transform="translate(0,0)"><ellipse id="e4086odgvln840" rx="207.619995" ry="274.100006" transform="matrix(0.04205009678001 -0.99911550351338 0.99911550351338 0.04205009678001 2037.70188698931270 1130.92540675610576)" fill="rgb(245,233,232)" stroke="none" stroke-width="1"/><text id="e4086odgvln841" dx="0" dy="0" font-family="Avenir-Roman, Avenir" font-size="84" transform="matrix(1 0 0 1 1885.82995605468750 1162.71997070312500)" fill="rgb(103,103,102)" stroke="none" stroke-width="1"><![CDATA[Context]]></text></g></g></g><g id="e4086odgvln842"><g id="e4086odgvln843" opacity="0"><ellipse id="e4086odgvln844" rx="274.100006" ry="207.619995" transform="matrix(0.99911550613805 -0.04205003441739 0.04205003441739 0.99911550613805 1265.44909004485157 482.43188321934741)" fill="rgb(245,233,232)" stroke="none" stroke-width="1"/><text id="e4086odgvln845" dx="0" dy="0" font-family="Avenir-Roman, Avenir" font-size="84" transform="matrix(1 0 0 1 1103.56994628906250 524.97998046875000)" fill="rgb(103,103,102)" stroke="none" stroke-width="1"><![CDATA[My work]]></text></g></g></svg>